<?xml version="1.0" standalone="no"?>
<!DOCTYPE svg PUBLIC "-//W3C//DTD SVG 20010904//EN"
 "http://www.w3.org/TR/2001/REC-SVG-20010904/DTD/svg10.dtd">
<svg version="1.0" xmlns="http://www.w3.org/2000/svg"
 width="500.000000pt" height="500.000000pt" viewBox="0 0 500.000000 500.000000"
 preserveAspectRatio="xMidYMid meet">
<metadata>
Created by potrace 1.14, written by Peter Selinger 2001-2017
</metadata>
<g transform="translate(0.000000,500.000000) scale(0.100000,-0.100000)"
fill="#000000" stroke="none">
<path d="M2866 4799 c-16 -4 -33 -6 -37 -4 -4 3 -10 -1 -12 -7 -4 -9 -6 -9 -6
1 -1 11 -5 10 -17 -5 -8 -10 -13 -14 -10 -7 8 14 -55 -15 -66 -31 -5 -7 -8 -6
-8 4 0 10 -3 11 -8 4 -7 -11 -39 -24 -56 -23 -5 0 -12 -4 -16 -11 -4 -6 -16
-12 -28 -13 -11 0 -18 -5 -16 -9 5 -7 -19 -12 -53 -11 -7 1 -13 -3 -13 -8 0
-5 -11 -9 -25 -9 -14 0 -25 -4 -25 -9 0 -5 -11 -8 -25 -6 -14 1 -25 -1 -25 -5
0 -4 -18 -15 -40 -25 -22 -10 -40 -22 -40 -27 0 -4 -7 -8 -15 -8 -19 0 -56
-36 -47 -46 4 -4 2 -4 -5 -1 -13 8 -45 -2 -39 -12 4 -6 -26 -38 -31 -33 -10 8
-21 -1 -17 -13 5 -11 2 -14 -12 -9 -11 4 -16 4 -12 0 7 -8 -6 -24 -77 -98 -22
-22 -33 -37 -25 -33 8 4 5 -2 -7 -14 -13 -12 -23 -26 -23 -32 0 -6 -4 -8 -8
-5 -8 5 -12 -8 -13 -46 0 -10 -6 -15 -14 -12 -7 3 -13 -1 -12 -8 1 -36 -4 -49
-15 -42 -10 6 -10 4 0 -8 9 -11 10 -18 2 -23 -6 -3 -8 -10 -5 -15 3 -5 1 -11
-5 -15 -5 -3 -10 -11 -10 -16 0 -6 5 -7 11 -4 6 4 5 -2 -2 -13 -7 -12 -17 -18
-21 -16 -4 3 -8 -7 -8 -21 0 -18 4 -24 13 -19 8 5 8 2 -2 -9 -9 -11 -10 -17
-2 -17 6 0 11 -9 11 -19 0 -10 7 -22 16 -25 9 -3 12 -11 8 -18 -5 -8 -2 -9 9
-5 20 7 26 -11 27 -78 0 -74 -2 -89 -14 -104 -9 -12 -8 -13 3 -6 11 6 12 5 5
-6 -4 -8 -9 -18 -10 -24 -1 -5 -5 -23 -9 -40 -4 -16 -8 -39 -10 -50 -2 -11 -4
-21 -5 -22 -2 -2 -3 -6 -4 -10 -1 -5 -7 -18 -14 -30 -9 -16 -9 -23 -2 -23 6 0
8 -5 3 -12 -11 -18 -10 -42 2 -50 6 -5 6 -8 -1 -8 -15 0 -6 -183 11 -210 6 -9
4 -11 -6 -5 -11 7 -12 6 -3 -6 9 -11 14 -244 5 -244 -1 0 -4 -11 -7 -25 -2
-14 -12 -31 -21 -37 -9 -7 -14 -13 -10 -13 3 0 -7 -14 -23 -32 -16 -17 -27
-35 -25 -39 3 -4 -1 -9 -8 -12 -13 -5 -56 -132 -64 -187 -10 -68 -10 -100 -2
-100 6 0 6 -7 0 -19 -6 -10 -9 -20 -6 -22 2 -2 6 -31 10 -64 7 -62 20 -113 52
-201 13 -34 18 -72 16 -120 -3 -110 -10 -158 -22 -162 -6 -2 -8 -9 -5 -14 4
-6 2 -8 -4 -4 -6 3 -13 2 -17 -4 -4 -6 -11 -8 -16 -5 -5 4 -9 1 -9 -5 0 -6 -5
-8 -10 -5 -6 3 -13 -1 -16 -9 -3 -9 -10 -14 -14 -11 -5 3 -11 1 -15 -5 -4 -6
-11 -8 -16 -5 -5 4 -12 -1 -15 -9 -3 -9 -10 -14 -14 -11 -5 3 -14 -1 -22 -8
-15 -15 -49 -31 -60 -29 -5 1 -8 -2 -8 -6 0 -5 -16 -17 -35 -28 -19 -10 -35
-22 -35 -26 0 -4 -6 -5 -14 -2 -7 3 -16 -2 -20 -11 -3 -9 -10 -13 -16 -10 -6
3 -13 -1 -16 -10 -4 -9 -13 -14 -20 -11 -8 3 -14 0 -14 -5 0 -6 -9 -9 -20 -6
-11 3 -20 0 -20 -6 0 -7 -8 0 -18 16 -9 15 -20 27 -24 27 -5 0 -8 7 -8 15 0 8
-9 22 -19 32 -11 10 -22 32 -25 48 -2 17 -5 31 -6 33 -2 1 -4 7 -5 12 -1 6 -4
12 -5 15 -1 3 -3 8 -5 13 -5 17 -17 48 -26 65 -5 10 -7 22 -4 27 4 6 2 10 -4
10 -9 0 -22 27 -27 60 -2 8 -9 19 -17 25 -8 5 -17 20 -21 33 -4 12 -13 22 -19
22 -7 0 -18 9 -25 20 -7 11 -19 20 -27 20 -8 0 -15 5 -15 12 0 9 -3 9 -12 0
-7 -7 -17 -8 -30 -1 -12 6 -18 6 -18 -1 0 -5 -3 -9 -8 -8 -19 4 -112 -54 -156
-96 -13 -13 -21 -16 -24 -8 -2 7 -8 10 -12 7 -5 -3 -7 4 -5 15 2 11 -1 20 -7
20 -6 0 -9 3 -5 6 3 3 -3 15 -14 27 -10 11 -19 27 -19 36 0 8 -3 11 -6 8 -4
-4 -20 8 -35 26 -16 17 -29 29 -29 26 0 -4 -19 11 -42 32 -24 22 -49 39 -55
39 -7 0 -13 7 -13 15 0 8 -11 17 -25 21 -14 3 -25 11 -25 17 0 6 -3 7 -7 4 -3
-4 -12 -2 -20 4 -7 6 -13 8 -13 3 0 -5 -4 -3 -9 4 -21 34 -149 14 -245 -39
-29 -16 -57 -22 -114 -22 -47 0 -56 3 -80 30 -51 57 -60 71 -54 79 4 4 1 4 -5
0 -10 -6 -13 -266 -13 -1247 l0 -1239 2500 0 2500 0 0 409 0 409 -35 -3 c-19
-2 -35 0 -35 3 0 4 -59 7 -131 7 -72 0 -133 3 -135 7 -3 4 -11 5 -19 2 -7 -3
-24 2 -37 10 -14 9 -28 13 -31 9 -4 -3 -7 -1 -7 5 0 6 -10 21 -23 34 -13 13
-26 31 -30 41 -3 9 -11 17 -17 17 -6 0 -8 4 -5 10 3 5 1 10 -5 10 -6 0 -8 5
-5 10 3 6 1 10 -4 10 -6 0 -11 7 -11 15 0 8 -4 15 -10 15 -5 0 -10 7 -10 15 0
8 -5 15 -11 15 -5 0 -8 4 -5 9 4 5 2 11 -4 13 -6 2 -12 13 -15 26 -2 12 -11
29 -19 37 -8 8 -18 25 -22 38 -4 12 -10 24 -14 27 -3 3 -17 28 -30 55 -13 28
-26 52 -29 55 -7 6 -28 43 -49 83 -8 16 -20 31 -28 34 -8 3 -12 9 -9 13 5 8
-42 71 -57 78 -5 2 -8 8 -8 13 0 14 -42 59 -56 59 -8 0 -11 6 -8 15 4 9 1 15
-7 15 -10 0 -10 3 -1 12 7 7 8 17 1 30 -6 11 -6 18 0 18 5 0 10 8 9 17 0 10 3
29 7 43 9 36 17 80 19 115 2 25 8 31 39 38 20 5 37 12 38 15 0 4 2 16 5 27 2
11 7 38 10 59 3 21 33 91 65 154 33 63 57 117 54 120 -3 3 -1 10 4 16 22 28
61 169 65 232 2 38 5 74 6 79 1 6 2 12 0 15 -1 3 -3 15 -6 28 -5 30 -48 112
-71 137 -10 11 -27 21 -38 22 -66 7 -74 15 -65 65 5 24 11 64 14 90 4 26 9 53
11 60 6 19 17 70 18 91 1 9 5 17 9 17 4 0 8 9 8 19 0 11 5 32 12 48 6 15 11
31 10 35 -1 4 3 20 10 35 6 15 12 35 13 43 1 8 8 35 15 60 7 25 14 50 15 55 5
38 19 86 27 91 5 3 4 12 -3 20 -6 8 -7 14 -2 14 5 0 10 10 10 22 1 13 7 24 13
26 7 3 7 9 -2 20 -10 12 -10 14 0 8 8 -5 12 0 12 14 0 12 4 19 9 15 11 -6 7
28 -5 47 -4 7 -3 8 4 4 7 -4 12 -3 12 2 0 6 -7 13 -16 16 -13 5 -14 9 -4 21
10 12 10 15 0 15 -9 0 -10 3 -1 13 8 10 7 17 -2 27 -9 10 -9 11 1 6 6 -4 12
-3 12 3 0 5 -8 12 -17 14 -17 4 -17 5 0 6 19 1 23 16 7 26 -5 3 -10 11 -10 16
0 6 4 8 8 5 4 -2 8 4 8 14 0 10 -3 18 -6 18 -18 -2 -21 4 -9 19 12 14 12 16 0
8 -11 -6 -13 -4 -8 8 3 10 2 17 -2 17 -5 0 -7 9 -4 20 3 11 0 20 -6 20 -6 0
-11 9 -11 21 0 13 -4 18 -12 13 -9 -5 -9 -2 1 9 12 15 11 17 -3 17 -9 0 -16 5
-16 11 0 6 7 8 17 5 16 -6 16 -6 0 12 -9 10 -14 22 -10 25 3 4 1 7 -6 7 -7 0
-10 4 -6 9 3 5 -2 16 -10 24 -8 9 -15 23 -15 31 0 9 -6 16 -14 16 -7 0 -19 14
-26 30 -7 17 -19 30 -27 30 -13 0 -13 3 -3 15 11 13 10 14 -4 9 -9 -3 -16 -1
-16 5 0 6 -7 11 -15 11 -8 0 -15 6 -15 14 0 18 -40 47 -53 39 -6 -3 -7 -1 -3
5 4 7 -9 19 -34 32 -22 11 -40 27 -40 35 0 8 -3 14 -7 14 -21 -3 -32 2 -27 14
3 8 -3 20 -13 28 -17 13 -17 13 -3 -6 14 -20 14 -20 -7 -2 -12 11 -19 25 -17
32 6 16 -35 47 -50 38 -6 -3 -8 -3 -4 1 9 10 -28 46 -48 46 -8 0 -12 4 -9 10
3 6 -1 7 -9 4 -9 -4 -16 -1 -16 6 0 7 -8 10 -20 7 -11 -3 -20 -2 -20 2 0 4 -8
7 -17 8 -44 3 -63 8 -63 16 0 4 -4 6 -9 3 -5 -3 -14 1 -21 9 -7 8 -16 12 -21
9 -5 -3 -9 -2 -9 3 0 4 -11 13 -25 20 -19 8 -23 8 -18 0 3 -7 -2 -4 -13 5 -10
9 -22 17 -26 17 -5 1 -10 2 -13 2 -3 1 -13 2 -22 3 -27 2 -44 16 -37 29 3 7
-1 4 -9 -6 -14 -17 -15 -17 -19 -1 -3 16 -4 16 -22 -2 -17 -16 -19 -16 -13 -2
3 10 2 20 -3 23 -6 4 -10 1 -10 -5 0 -6 -5 -8 -10 -5 -6 4 -8 9 -6 13 6 10
-58 7 -74 -3 -8 -5 -11 -4 -7 2 4 6 0 13 -8 17 -8 3 -17 1 -21 -5 -4 -6 -12
-5 -22 3 -13 11 -14 11 -7 -2 8 -13 7 -13 -8 -1 -14 11 -17 11 -17 0 0 -10 -3
-10 -8 -3 -4 7 -18 11 -32 10 -14 -1 -34 4 -44 11 -14 9 -23 9 -33 1 -10 -8
-13 -7 -13 2 0 7 -7 10 -15 7 -8 -4 -17 -2 -20 3 -9 15 -27 12 -19 -2 4 -7 -2
-5 -13 5 -14 12 -23 15 -28 7 -3 -5 -12 -7 -18 -3 -19 11 -47 11 -47 -1 0 -7
-3 -8 -8 -1 -8 12 -27 13 -38 3 -4 -4 -12 -4 -18 1 -6 4 -24 4 -40 0z"/>
</g>
</svg>
